<?xml version="1.0" encoding="utf-8"?>
<!-- Generator: Adobe Illustrator 17.0.0, SVG Export Plug-In . SVG Version: 6.00 Build 0)  -->
<!DOCTYPE svg PUBLIC "-//W3C//DTD SVG 1.1//EN" "http://www.w3.org/Graphics/SVG/1.1/DTD/svg11.dtd">
<svg version="1.1" id="Layer_1" xmlns="http://www.w3.org/2000/svg" xmlns:xlink="http://www.w3.org/1999/xlink" x="0px" y="0px"
	 width="300px" height="300px" viewBox="0 0 300 300" enable-background="new 0 0 300 300" xml:space="preserve">
<g>
	<path fill-rule="evenodd" clip-rule="evenodd" fill="#FDDECC" d="M125.947,191.056c-53.06,23.261-68.977,35.661-75.269,41.23
		C40.983,240.866,35.62,272.846,29.901,300h120.045h120.045c-5.718-27.154-11.083-59.134-20.777-67.713
		c-6.291-5.569-21.625-17.65-74.686-40.913L125.947,191.056z"/>
	<path fill-rule="evenodd" clip-rule="evenodd" fill="#497294" d="M125.945,191.056c-53.058,23.261-68.975,35.661-75.267,41.23
		C40.983,240.866,35.62,272.846,29.901,300h120.045h120.043c-5.718-27.154-11.081-59.134-20.777-67.713
		c-6.289-5.569-21.623-17.65-74.684-40.913L125.945,191.056z"/>
	<path fill-rule="evenodd" clip-rule="evenodd" fill="#FDDECC" d="M175.709,144.689v58.814c-14.17,17.355-37.357,16.754-51.525,0
		v-58.814C124.184,112.931,175.709,112.931,175.709,144.689z"/>
	<path fill-rule="evenodd" clip-rule="evenodd" fill="#F7C6AB" d="M175.709,144.689v39.377c-9.75,7.106-19.146,11.087-25.762,11.087
		c-6.617,0-16.015-3.981-25.762-11.087v-39.377C124.184,112.931,175.709,112.931,175.709,144.689z"/>
	<path fill-rule="evenodd" clip-rule="evenodd" fill="#FDDECC" d="M149.946,39.096c-86.468,0-55.372,104.479-49.724,112.795
		c6.227,9.172,35.753,33.481,49.724,33.481c13.97,0,43.494-24.309,49.722-33.481C205.319,143.575,236.414,39.096,149.946,39.096z"/>
	<path fill-rule="evenodd" clip-rule="evenodd" fill="#F7C6AB" d="M172.975,153.582c-20.272,0.933-40.318-6.533-52.577-17.602
		C121.163,152.757,159.784,165.819,172.975,153.582z"/>
	<path fill-rule="evenodd" clip-rule="evenodd" fill="#F7C6AB" d="M125.727,134.522c-4.227,1.643-7.645,4.982-9.151,8.35
		C115.588,138.286,122.323,132.054,125.727,134.522z"/>
	
		<ellipse transform="matrix(-0.3127 -0.9498 0.9498 -0.3127 -0.053 243.8065)" fill-rule="evenodd" clip-rule="evenodd" fill="#FDDECC" cx="88.179" cy="121.922" rx="14.959" ry="8.65"/>
	
		<ellipse transform="matrix(0.3128 -0.9498 0.9498 0.3128 29.5283 284.6558)" fill-rule="evenodd" clip-rule="evenodd" fill="#FDDECC" cx="211.485" cy="121.921" rx="14.959" ry="8.651"/>
	<path fill-rule="evenodd" clip-rule="evenodd" fill="#FEC760" d="M110.423,74.06c-5.015,27.402-17.576,24.844-16.58,57
		c-4.035-25.062-10.061-58.413,6.978-80.382c13.615-17.554,58.709-30.111,87.909-9.049c32.251,6.89,22.166,72.553,17.842,84.964
		c-3.019-20.102-9.782-28.476-18.319-52.112C176.671,82.788,125.27,84.64,110.423,74.06z"/>
	<path fill-rule="evenodd" clip-rule="evenodd" fill="#E6E6E5" d="M150.08,216.294c0,0-35.953,8.583-35.953,10.76
		c0,2.176,13.681,72.947,13.681,72.947h48.812l5.594-72.635L150.08,216.294z"/>
	<polygon fill-rule="evenodd" clip-rule="evenodd" fill="#89BCE5" points="124.184,191.831 124.184,203.503 135.375,300 
		116.131,300 94.961,257.021 115.169,243.55 90.473,232.003 113.182,196.765 	"/>
	<polygon fill-rule="evenodd" clip-rule="evenodd" fill="#89BCE5" points="175.709,191.893 175.711,203.503 164.408,300 
		183.651,300 204.819,257.021 184.614,243.55 209.31,232.003 189.126,197.851 	"/>
	<path fill-rule="evenodd" clip-rule="evenodd" fill="#FFFFFF" d="M124.184,184.066l-2.252,8.759l6.303,45.623l21.845-22.152
		L124.184,184.066z"/>
	<path fill-rule="evenodd" clip-rule="evenodd" fill="#9E3622" d="M138.867,228.227l6.24,9.666c3.224,0,6.453,0,9.678,0l6.241-9.666
		l-10.945-11.934L138.867,228.227z"/>
	<polygon fill-rule="evenodd" clip-rule="evenodd" fill="#9E3622" points="145.106,237.893 136.224,300 163.669,300 
		154.786,237.893 	"/>
	<path fill-rule="evenodd" clip-rule="evenodd" fill="#FFFFFF" d="M175.709,184.066l1.777,8.617l-5.922,46.22l-21.484-22.608
		L175.709,184.066z"/>
	<g>
		<path fill-rule="evenodd" clip-rule="evenodd" fill="#314E67" d="M78.823,300h4.111c-0.184-18.281-0.184-31.457-0.184-31.457
			S80.929,282.236,78.823,300z"/>
		<path fill-rule="evenodd" clip-rule="evenodd" fill="#314E67" d="M221.07,300h-4.113c0.184-18.281,0.184-31.457,0.184-31.457
			S218.961,282.236,221.07,300z"/>
	</g>
</g>
</svg>
